<svg xmlns="http://www.w3.org/2000/svg" xmlns:xlink="http://www.w3.org/1999/xlink" width="500" zoomAndPan="magnify" viewBox="0 0 375 374.999991" height="500" preserveAspectRatio="xMidYMid meet" version="1.0"><defs><clipPath id="120c1ecd35"><path d="M 0 37.5 L 375 37.5 L 375 334.5 L 0 334.5 Z M 0 37.5 " clip-rule="nonzero"/></clipPath></defs><g clip-path="url(#120c1ecd35)"><path fill="#ffffff" d="M 30.785156 37.539062 L 344.214844 37.539062 C 361.21875 37.539062 375 51.332031 375 68.351562 C 375 85.367188 361.21875 99.164062 344.214844 99.164062 L 30.785156 99.164062 C 13.78125 99.164062 0 85.367188 0 68.351562 C 0 51.332031 13.78125 37.539062 30.785156 37.539062 Z M 30.785156 155.1875 L 344.214844 155.1875 C 361.21875 155.1875 375 168.984375 375 186 C 375 203.015625 361.21875 216.8125 344.214844 216.8125 L 30.785156 216.8125 C 13.78125 216.8125 0 203.015625 0 186 C 0 168.984375 13.78125 155.1875 30.785156 155.1875 Z M 30.785156 272.835938 L 344.214844 272.835938 C 361.21875 272.835938 375 286.632812 375 303.648438 C 375 320.667969 361.21875 334.460938 344.214844 334.460938 L 30.785156 334.460938 C 13.78125 334.460938 0 320.667969 0 303.648438 C 0 286.632812 13.78125 272.835938 30.785156 272.835938 Z M 30.785156 272.835938 " fill-opacity="1" fill-rule="evenodd"/></g></svg>