<svg xmlns="http://www.w3.org/2000/svg" xmlns:xlink="http://www.w3.org/1999/xlink" width="500" zoomAndPan="magnify" viewBox="0 0 375 374.999991" height="500" preserveAspectRatio="xMidYMid meet" version="1.0"><defs><clipPath id="7e39f7358f"><path d="M 7 9 L 368 9 L 368 369.09375 L 7 369.09375 Z M 7 9 " clip-rule="nonzero"/></clipPath></defs><g clip-path="url(#7e39f7358f)"><path fill="#ffffff" d="M 238.246094 189.4375 L 356.585938 71.039062 C 370.617188 57.007812 370.617188 34.246094 356.585938 20.207031 C 342.550781 6.175781 319.824219 6.175781 305.792969 20.207031 L 187.453125 138.605469 L 69.113281 20.21875 C 55.089844 6.175781 32.339844 6.175781 18.308594 20.21875 C 4.285156 34.246094 4.285156 57.007812 18.308594 71.050781 L 136.644531 189.4375 L 18.019531 308.125 C 4 322.15625 4 344.917969 18.019531 358.945312 C 25.023438 365.96875 34.234375 369.476562 43.417969 369.476562 C 52.601562 369.476562 61.808594 365.96875 68.824219 358.945312 L 187.441406 240.269531 L 305.765625 358.660156 C 312.785156 365.679688 321.980469 369.191406 331.164062 369.191406 C 340.347656 369.191406 349.542969 365.679688 356.5625 358.660156 C 370.59375 344.628906 370.59375 321.867188 356.5625 307.839844 Z M 238.246094 189.4375 " fill-opacity="1" fill-rule="nonzero"/></g></svg>